<mxfile host="app.diagrams.net" agent="Mozilla/5.0 (Windows NT 10.0; Win64; x64; rv:143.0) Gecko/20100101 Firefox/143.0" version="28.2.4">
  <diagram name="PÃ¡gina-1" id="aGW3lqfwOsQ_gTxrYHmR">
    <mxGraphModel dx="1099" dy="724" grid="1" gridSize="10" guides="1" tooltips="1" connect="1" arrows="1" fold="1" page="1" pageScale="1" pageWidth="1654" pageHeight="2336" math="0" shadow="0">
      <root>
        <mxCell id="0" />
        <mxCell id="1" parent="0" />
        <mxCell id="Ds3o-OmhyKdtsvsOEu8b-1" value="Departamento" style="whiteSpace=wrap;html=1;align=center;" parent="1" vertex="1">
          <mxGeometry x="354" y="230" width="100" height="40" as="geometry" />
        </mxCell>
        <mxCell id="Ds3o-OmhyKdtsvsOEu8b-2" value="Cliente" style="whiteSpace=wrap;html=1;align=center;" parent="1" vertex="1">
          <mxGeometry x="580" y="220" width="100" height="40" as="geometry" />
        </mxCell>
        <mxCell id="Ds3o-OmhyKdtsvsOEu8b-3" value="Tipo_cliente" style="whiteSpace=wrap;html=1;align=center;" parent="1" vertex="1">
          <mxGeometry x="900" y="220" width="100" height="40" as="geometry" />
        </mxCell>
        <mxCell id="Ds3o-OmhyKdtsvsOEu8b-4" style="edgeStyle=orthogonalEdgeStyle;rounded=0;orthogonalLoop=1;jettySize=auto;html=1;exitX=0.5;exitY=1;exitDx=0;exitDy=0;" parent="1" source="Ds3o-OmhyKdtsvsOEu8b-2" target="Ds3o-OmhyKdtsvsOEu8b-2" edge="1">
          <mxGeometry relative="1" as="geometry" />
        </mxCell>
        <mxCell id="Ds3o-OmhyKdtsvsOEu8b-5" value="" style="endArrow=none;html=1;rounded=0;entryX=0.25;entryY=0;entryDx=0;entryDy=0;exitX=0.61;exitY=0.975;exitDx=0;exitDy=0;exitPerimeter=0;" parent="1" source="Ds3o-OmhyKdtsvsOEu8b-6" target="Ds3o-OmhyKdtsvsOEu8b-1" edge="1">
          <mxGeometry relative="1" as="geometry">
            <mxPoint x="310" y="220" as="sourcePoint" />
            <mxPoint x="370" y="240" as="targetPoint" />
          </mxGeometry>
        </mxCell>
        <mxCell id="Ds3o-OmhyKdtsvsOEu8b-6" value="CodDepartamento" style="ellipse;whiteSpace=wrap;html=1;align=center;fontStyle=4;" parent="1" vertex="1">
          <mxGeometry x="260" y="180" width="130" height="40" as="geometry" />
        </mxCell>
        <mxCell id="Ds3o-OmhyKdtsvsOEu8b-8" value="NomeDepartamento" style="ellipse;whiteSpace=wrap;html=1;align=center;" parent="1" vertex="1">
          <mxGeometry x="200" y="290" width="120" height="40" as="geometry" />
        </mxCell>
        <mxCell id="Ds3o-OmhyKdtsvsOEu8b-9" value="" style="endArrow=none;html=1;rounded=0;exitX=1;exitY=0;exitDx=0;exitDy=0;entryX=0;entryY=1;entryDx=0;entryDy=0;" parent="1" source="Ds3o-OmhyKdtsvsOEu8b-8" target="Ds3o-OmhyKdtsvsOEu8b-1" edge="1">
          <mxGeometry relative="1" as="geometry">
            <mxPoint x="270" y="290" as="sourcePoint" />
            <mxPoint x="430" y="290" as="targetPoint" />
          </mxGeometry>
        </mxCell>
        <mxCell id="Ds3o-OmhyKdtsvsOEu8b-14" value="" style="endArrow=none;html=1;rounded=0;entryX=0.75;entryY=0;entryDx=0;entryDy=0;exitX=0.61;exitY=0.975;exitDx=0;exitDy=0;exitPerimeter=0;" parent="1" source="Ds3o-OmhyKdtsvsOEu8b-15" target="Ds3o-OmhyKdtsvsOEu8b-3" edge="1">
          <mxGeometry relative="1" as="geometry">
            <mxPoint x="960" y="200" as="sourcePoint" />
            <mxPoint x="1005" y="220" as="targetPoint" />
          </mxGeometry>
        </mxCell>
        <mxCell id="Ds3o-OmhyKdtsvsOEu8b-15" value="CodTipoCliente" style="ellipse;whiteSpace=wrap;html=1;align=center;fontStyle=4;" parent="1" vertex="1">
          <mxGeometry x="920" y="160" width="120" height="40" as="geometry" />
        </mxCell>
        <mxCell id="Ds3o-OmhyKdtsvsOEu8b-16" value="TipoCliente" style="ellipse;whiteSpace=wrap;html=1;align=center;" parent="1" vertex="1">
          <mxGeometry x="1020" y="250" width="120" height="40" as="geometry" />
        </mxCell>
        <mxCell id="Ds3o-OmhyKdtsvsOEu8b-17" value="" style="endArrow=none;html=1;rounded=0;exitX=1;exitY=1;exitDx=0;exitDy=0;entryX=0;entryY=0.5;entryDx=0;entryDy=0;" parent="1" source="Ds3o-OmhyKdtsvsOEu8b-3" target="Ds3o-OmhyKdtsvsOEu8b-16" edge="1">
          <mxGeometry relative="1" as="geometry">
            <mxPoint x="1090" y="250" as="sourcePoint" />
            <mxPoint x="1150" y="240" as="targetPoint" />
          </mxGeometry>
        </mxCell>
        <mxCell id="Ds3o-OmhyKdtsvsOEu8b-18" value="EmailCliente" style="ellipse;whiteSpace=wrap;html=1;align=center;fontStyle=4;" parent="1" vertex="1">
          <mxGeometry x="646" y="150" width="100" height="40" as="geometry" />
        </mxCell>
        <mxCell id="Ds3o-OmhyKdtsvsOEu8b-19" value="" style="endArrow=none;html=1;rounded=0;exitX=0.856;exitY=-0.1;exitDx=0;exitDy=0;entryX=0.6;entryY=0.95;entryDx=0;entryDy=0;entryPerimeter=0;exitPerimeter=0;" parent="1" source="Ds3o-OmhyKdtsvsOEu8b-2" target="Ds3o-OmhyKdtsvsOEu8b-18" edge="1">
          <mxGeometry relative="1" as="geometry">
            <mxPoint x="526" y="330" as="sourcePoint" />
            <mxPoint x="686" y="330" as="targetPoint" />
          </mxGeometry>
        </mxCell>
        <mxCell id="Ds3o-OmhyKdtsvsOEu8b-21" value="NomeCliente" style="ellipse;whiteSpace=wrap;html=1;align=center;" parent="1" vertex="1">
          <mxGeometry x="730" y="220" width="100" height="40" as="geometry" />
        </mxCell>
        <mxCell id="Ds3o-OmhyKdtsvsOEu8b-22" value="PassCliente" style="ellipse;whiteSpace=wrap;html=1;align=center;" parent="1" vertex="1">
          <mxGeometry x="530" y="150" width="100" height="40" as="geometry" />
        </mxCell>
        <mxCell id="Ds3o-OmhyKdtsvsOEu8b-23" value="" style="endArrow=none;html=1;rounded=0;exitX=0.728;exitY=0.909;exitDx=0;exitDy=0;entryX=0.25;entryY=0;entryDx=0;entryDy=0;exitPerimeter=0;" parent="1" source="Ds3o-OmhyKdtsvsOEu8b-22" target="Ds3o-OmhyKdtsvsOEu8b-2" edge="1">
          <mxGeometry relative="1" as="geometry">
            <mxPoint x="486" y="220" as="sourcePoint" />
            <mxPoint x="646" y="220" as="targetPoint" />
          </mxGeometry>
        </mxCell>
        <mxCell id="Ds3o-OmhyKdtsvsOEu8b-25" value="" style="endArrow=none;html=1;rounded=0;exitX=1;exitY=0.5;exitDx=0;exitDy=0;entryX=0.074;entryY=0.291;entryDx=0;entryDy=0;entryPerimeter=0;" parent="1" source="Ds3o-OmhyKdtsvsOEu8b-2" target="Ds3o-OmhyKdtsvsOEu8b-21" edge="1">
          <mxGeometry relative="1" as="geometry">
            <mxPoint x="516" y="360" as="sourcePoint" />
            <mxPoint x="676" y="360" as="targetPoint" />
          </mxGeometry>
        </mxCell>
        <mxCell id="Ds3o-OmhyKdtsvsOEu8b-26" value="TelefCliente" style="ellipse;whiteSpace=wrap;html=1;align=center;" parent="1" vertex="1">
          <mxGeometry x="556" y="290" width="100" height="40" as="geometry" />
        </mxCell>
        <mxCell id="Ds3o-OmhyKdtsvsOEu8b-27" value="" style="endArrow=none;html=1;rounded=0;exitX=0.5;exitY=0;exitDx=0;exitDy=0;entryX=0.25;entryY=1;entryDx=0;entryDy=0;" parent="1" source="Ds3o-OmhyKdtsvsOEu8b-26" target="Ds3o-OmhyKdtsvsOEu8b-2" edge="1">
          <mxGeometry relative="1" as="geometry">
            <mxPoint x="586" y="300" as="sourcePoint" />
            <mxPoint x="600" y="336" as="targetPoint" />
          </mxGeometry>
        </mxCell>
        <mxCell id="Ds3o-OmhyKdtsvsOEu8b-28" value="Tipo_Urgencia" style="whiteSpace=wrap;html=1;align=center;" parent="1" vertex="1">
          <mxGeometry x="1040" y="450" width="100" height="40" as="geometry" />
        </mxCell>
        <mxCell id="Ds3o-OmhyKdtsvsOEu8b-29" style="edgeStyle=orthogonalEdgeStyle;rounded=0;orthogonalLoop=1;jettySize=auto;html=1;exitX=0.5;exitY=1;exitDx=0;exitDy=0;" parent="1" source="Ds3o-OmhyKdtsvsOEu8b-28" target="Ds3o-OmhyKdtsvsOEu8b-28" edge="1">
          <mxGeometry relative="1" as="geometry" />
        </mxCell>
        <mxCell id="Ds3o-OmhyKdtsvsOEu8b-31" value="" style="endArrow=none;html=1;rounded=0;exitX=0.84;exitY=-0.025;exitDx=0;exitDy=0;entryX=0.5;entryY=1;entryDx=0;entryDy=0;exitPerimeter=0;" parent="1" source="Ds3o-OmhyKdtsvsOEu8b-28" target="Ds3o-OmhyKdtsvsOEu8b-32" edge="1">
          <mxGeometry relative="1" as="geometry">
            <mxPoint x="986" y="560" as="sourcePoint" />
            <mxPoint x="1166" y="418" as="targetPoint" />
          </mxGeometry>
        </mxCell>
        <mxCell id="Ds3o-OmhyKdtsvsOEu8b-32" value="TipoUrgencia" style="ellipse;whiteSpace=wrap;html=1;align=center;" parent="1" vertex="1">
          <mxGeometry x="1110" y="390" width="100" height="40" as="geometry" />
        </mxCell>
        <mxCell id="Ds3o-OmhyKdtsvsOEu8b-33" value="" style="endArrow=none;html=1;rounded=0;entryX=0.25;entryY=0;entryDx=0;entryDy=0;exitX=0.644;exitY=0.909;exitDx=0;exitDy=0;exitPerimeter=0;" parent="1" source="Ds3o-OmhyKdtsvsOEu8b-34" target="Ds3o-OmhyKdtsvsOEu8b-28" edge="1">
          <mxGeometry relative="1" as="geometry">
            <mxPoint x="1060" y="410" as="sourcePoint" />
            <mxPoint x="1106" y="450" as="targetPoint" />
          </mxGeometry>
        </mxCell>
        <mxCell id="Ds3o-OmhyKdtsvsOEu8b-34" value="CalTipoUrgencia" style="ellipse;whiteSpace=wrap;html=1;align=center;fontStyle=4;" parent="1" vertex="1">
          <mxGeometry x="1000" y="390" width="100" height="40" as="geometry" />
        </mxCell>
        <mxCell id="Ds3o-OmhyKdtsvsOEu8b-37" value="Tipo_Problemas" style="whiteSpace=wrap;html=1;align=center;" parent="1" vertex="1">
          <mxGeometry x="1040" y="590" width="100" height="40" as="geometry" />
        </mxCell>
        <mxCell id="Ds3o-OmhyKdtsvsOEu8b-38" style="edgeStyle=orthogonalEdgeStyle;rounded=0;orthogonalLoop=1;jettySize=auto;html=1;exitX=0.5;exitY=1;exitDx=0;exitDy=0;" parent="1" source="Ds3o-OmhyKdtsvsOEu8b-37" target="Ds3o-OmhyKdtsvsOEu8b-37" edge="1">
          <mxGeometry relative="1" as="geometry" />
        </mxCell>
        <mxCell id="Ds3o-OmhyKdtsvsOEu8b-39" value="" style="endArrow=none;html=1;rounded=0;exitX=0.84;exitY=-0.025;exitDx=0;exitDy=0;entryX=0.5;entryY=1;entryDx=0;entryDy=0;exitPerimeter=0;" parent="1" source="Ds3o-OmhyKdtsvsOEu8b-37" target="Ds3o-OmhyKdtsvsOEu8b-40" edge="1">
          <mxGeometry relative="1" as="geometry">
            <mxPoint x="986" y="700" as="sourcePoint" />
            <mxPoint x="1166" y="558" as="targetPoint" />
          </mxGeometry>
        </mxCell>
        <mxCell id="Ds3o-OmhyKdtsvsOEu8b-40" value="TipoProblema" style="ellipse;whiteSpace=wrap;html=1;align=center;" parent="1" vertex="1">
          <mxGeometry x="1110" y="530" width="100" height="40" as="geometry" />
        </mxCell>
        <mxCell id="Ds3o-OmhyKdtsvsOEu8b-41" value="" style="endArrow=none;html=1;rounded=0;entryX=0.25;entryY=0;entryDx=0;entryDy=0;exitX=0.644;exitY=0.909;exitDx=0;exitDy=0;exitPerimeter=0;" parent="1" source="Ds3o-OmhyKdtsvsOEu8b-42" target="Ds3o-OmhyKdtsvsOEu8b-37" edge="1">
          <mxGeometry relative="1" as="geometry">
            <mxPoint x="1060" y="550" as="sourcePoint" />
            <mxPoint x="1106" y="590" as="targetPoint" />
          </mxGeometry>
        </mxCell>
        <mxCell id="Ds3o-OmhyKdtsvsOEu8b-42" value="CodTipoProblemas" style="ellipse;whiteSpace=wrap;html=1;align=center;fontStyle=4;" parent="1" vertex="1">
          <mxGeometry x="990" y="530" width="110" height="40" as="geometry" />
        </mxCell>
        <mxCell id="OEcMnNJZCauM74QHB7rr-1" value="Tecnico" style="whiteSpace=wrap;html=1;align=center;" vertex="1" parent="1">
          <mxGeometry x="294" y="510" width="100" height="40" as="geometry" />
        </mxCell>
        <mxCell id="OEcMnNJZCauM74QHB7rr-2" style="edgeStyle=orthogonalEdgeStyle;rounded=0;orthogonalLoop=1;jettySize=auto;html=1;exitX=0.5;exitY=1;exitDx=0;exitDy=0;" edge="1" parent="1" source="OEcMnNJZCauM74QHB7rr-1" target="OEcMnNJZCauM74QHB7rr-1">
          <mxGeometry relative="1" as="geometry" />
        </mxCell>
        <mxCell id="OEcMnNJZCauM74QHB7rr-3" value="EmailTecnico" style="ellipse;whiteSpace=wrap;html=1;align=center;" vertex="1" parent="1">
          <mxGeometry x="400" y="560" width="100" height="40" as="geometry" />
        </mxCell>
        <mxCell id="OEcMnNJZCauM74QHB7rr-4" value="" style="endArrow=none;html=1;rounded=0;exitX=1;exitY=1;exitDx=0;exitDy=0;entryX=0.074;entryY=0.291;entryDx=0;entryDy=0;entryPerimeter=0;" edge="1" parent="1" source="OEcMnNJZCauM74QHB7rr-1" target="OEcMnNJZCauM74QHB7rr-3">
          <mxGeometry relative="1" as="geometry">
            <mxPoint x="230" y="650" as="sourcePoint" />
            <mxPoint x="390" y="650" as="targetPoint" />
          </mxGeometry>
        </mxCell>
        <mxCell id="OEcMnNJZCauM74QHB7rr-5" value="NomeTecnico" style="ellipse;whiteSpace=wrap;html=1;align=center;" vertex="1" parent="1">
          <mxGeometry x="254" y="570" width="100" height="40" as="geometry" />
        </mxCell>
        <mxCell id="OEcMnNJZCauM74QHB7rr-6" value="" style="endArrow=none;html=1;rounded=0;exitX=0.5;exitY=0;exitDx=0;exitDy=0;entryX=0.25;entryY=1;entryDx=0;entryDy=0;" edge="1" parent="1" source="OEcMnNJZCauM74QHB7rr-5" target="OEcMnNJZCauM74QHB7rr-1">
          <mxGeometry relative="1" as="geometry">
            <mxPoint x="320" y="580" as="sourcePoint" />
            <mxPoint x="314" y="626" as="targetPoint" />
          </mxGeometry>
        </mxCell>
        <mxCell id="OEcMnNJZCauM74QHB7rr-7" value="" style="endArrow=none;html=1;rounded=0;entryX=0;entryY=0;entryDx=0;entryDy=0;exitX=0.61;exitY=0.975;exitDx=0;exitDy=0;exitPerimeter=0;" edge="1" parent="1" source="OEcMnNJZCauM74QHB7rr-8" target="OEcMnNJZCauM74QHB7rr-1">
          <mxGeometry relative="1" as="geometry">
            <mxPoint x="244" y="500" as="sourcePoint" />
            <mxPoint x="289" y="520" as="targetPoint" />
          </mxGeometry>
        </mxCell>
        <mxCell id="OEcMnNJZCauM74QHB7rr-8" value="NumTecnico" style="ellipse;whiteSpace=wrap;html=1;align=center;fontStyle=4;" vertex="1" parent="1">
          <mxGeometry x="194" y="450" width="120" height="40" as="geometry" />
        </mxCell>
        <mxCell id="OEcMnNJZCauM74QHB7rr-12" value="Msgs" style="whiteSpace=wrap;html=1;align=center;" vertex="1" parent="1">
          <mxGeometry x="614" y="610" width="100" height="40" as="geometry" />
        </mxCell>
        <mxCell id="OEcMnNJZCauM74QHB7rr-13" style="edgeStyle=orthogonalEdgeStyle;rounded=0;orthogonalLoop=1;jettySize=auto;html=1;exitX=0.5;exitY=1;exitDx=0;exitDy=0;" edge="1" parent="1" source="OEcMnNJZCauM74QHB7rr-12" target="OEcMnNJZCauM74QHB7rr-12">
          <mxGeometry relative="1" as="geometry" />
        </mxCell>
        <mxCell id="OEcMnNJZCauM74QHB7rr-14" value="Mensagem" style="ellipse;whiteSpace=wrap;html=1;align=center;" vertex="1" parent="1">
          <mxGeometry x="730" y="650" width="100" height="40" as="geometry" />
        </mxCell>
        <mxCell id="OEcMnNJZCauM74QHB7rr-15" value="" style="endArrow=none;html=1;rounded=0;exitX=1;exitY=1;exitDx=0;exitDy=0;entryX=0.074;entryY=0.291;entryDx=0;entryDy=0;entryPerimeter=0;" edge="1" parent="1" source="OEcMnNJZCauM74QHB7rr-12" target="OEcMnNJZCauM74QHB7rr-14">
          <mxGeometry relative="1" as="geometry">
            <mxPoint x="550" y="750" as="sourcePoint" />
            <mxPoint x="710" y="750" as="targetPoint" />
          </mxGeometry>
        </mxCell>
        <mxCell id="OEcMnNJZCauM74QHB7rr-16" value="DataMensagem" style="ellipse;whiteSpace=wrap;html=1;align=center;" vertex="1" parent="1">
          <mxGeometry x="630" y="680" width="100" height="40" as="geometry" />
        </mxCell>
        <mxCell id="OEcMnNJZCauM74QHB7rr-17" value="" style="endArrow=none;html=1;rounded=0;exitX=0.5;exitY=0;exitDx=0;exitDy=0;entryX=0.5;entryY=1;entryDx=0;entryDy=0;" edge="1" parent="1" source="OEcMnNJZCauM74QHB7rr-16" target="OEcMnNJZCauM74QHB7rr-12">
          <mxGeometry relative="1" as="geometry">
            <mxPoint x="620" y="690" as="sourcePoint" />
            <mxPoint x="634" y="726" as="targetPoint" />
          </mxGeometry>
        </mxCell>
        <mxCell id="OEcMnNJZCauM74QHB7rr-18" value="PassTecnico" style="ellipse;whiteSpace=wrap;html=1;align=center;" vertex="1" parent="1">
          <mxGeometry x="374" y="460" width="100" height="40" as="geometry" />
        </mxCell>
        <mxCell id="OEcMnNJZCauM74QHB7rr-19" value="" style="endArrow=none;html=1;rounded=0;exitX=0.647;exitY=0.042;exitDx=0;exitDy=0;entryX=0;entryY=1;entryDx=0;entryDy=0;exitPerimeter=0;" edge="1" parent="1" target="OEcMnNJZCauM74QHB7rr-18" source="OEcMnNJZCauM74QHB7rr-1">
          <mxGeometry relative="1" as="geometry">
            <mxPoint x="344" y="500" as="sourcePoint" />
            <mxPoint x="370" y="570" as="targetPoint" />
          </mxGeometry>
        </mxCell>
        <mxCell id="OEcMnNJZCauM74QHB7rr-21" value="Ticket" style="whiteSpace=wrap;html=1;align=center;" vertex="1" parent="1">
          <mxGeometry x="646" y="470" width="100" height="40" as="geometry" />
        </mxCell>
        <mxCell id="OEcMnNJZCauM74QHB7rr-22" value="Resolvido?" style="ellipse;whiteSpace=wrap;html=1;align=center;" vertex="1" parent="1">
          <mxGeometry x="740" y="533.57" width="100" height="40" as="geometry" />
        </mxCell>
        <mxCell id="OEcMnNJZCauM74QHB7rr-23" value="DataTicket" style="ellipse;whiteSpace=wrap;html=1;align=center;" vertex="1" parent="1">
          <mxGeometry x="760" y="433.57" width="100" height="40" as="geometry" />
        </mxCell>
        <mxCell id="OEcMnNJZCauM74QHB7rr-25" value="IdMsgs" style="ellipse;whiteSpace=wrap;html=1;align=center;fontStyle=4;" vertex="1" parent="1">
          <mxGeometry x="490" y="670" width="100" height="40" as="geometry" />
        </mxCell>
        <mxCell id="OEcMnNJZCauM74QHB7rr-27" value="" style="endArrow=none;html=1;rounded=0;exitX=0.8;exitY=0.121;exitDx=0;exitDy=0;entryX=0;entryY=0.75;entryDx=0;entryDy=0;exitPerimeter=0;" edge="1" parent="1" source="OEcMnNJZCauM74QHB7rr-25" target="OEcMnNJZCauM74QHB7rr-12">
          <mxGeometry relative="1" as="geometry">
            <mxPoint x="566" y="670" as="sourcePoint" />
            <mxPoint x="550" y="640" as="targetPoint" />
          </mxGeometry>
        </mxCell>
        <mxCell id="OEcMnNJZCauM74QHB7rr-28" value="IdTicket" style="ellipse;whiteSpace=wrap;html=1;align=center;fontStyle=4;" vertex="1" parent="1">
          <mxGeometry x="556" y="420" width="100" height="40" as="geometry" />
        </mxCell>
        <mxCell id="OEcMnNJZCauM74QHB7rr-29" value="" style="endArrow=none;html=1;rounded=0;exitX=0;exitY=0.25;exitDx=0;exitDy=0;entryX=0.72;entryY=0.975;entryDx=0;entryDy=0;entryPerimeter=0;" edge="1" parent="1" source="OEcMnNJZCauM74QHB7rr-21" target="OEcMnNJZCauM74QHB7rr-28">
          <mxGeometry relative="1" as="geometry">
            <mxPoint x="631" y="340" as="sourcePoint" />
            <mxPoint x="630" y="310" as="targetPoint" />
          </mxGeometry>
        </mxCell>
        <mxCell id="OEcMnNJZCauM74QHB7rr-30" value="" style="endArrow=none;html=1;rounded=0;exitX=1;exitY=0.5;exitDx=0;exitDy=0;entryX=0;entryY=1;entryDx=0;entryDy=0;" edge="1" parent="1" source="OEcMnNJZCauM74QHB7rr-21" target="OEcMnNJZCauM74QHB7rr-23">
          <mxGeometry relative="1" as="geometry">
            <mxPoint x="678" y="491" as="sourcePoint" />
            <mxPoint x="660" y="470" as="targetPoint" />
          </mxGeometry>
        </mxCell>
        <mxCell id="OEcMnNJZCauM74QHB7rr-31" value="" style="endArrow=none;html=1;rounded=0;exitX=0.9;exitY=0.975;exitDx=0;exitDy=0;entryX=0.09;entryY=0.186;entryDx=0;entryDy=0;exitPerimeter=0;entryPerimeter=0;" edge="1" parent="1" source="OEcMnNJZCauM74QHB7rr-21" target="OEcMnNJZCauM74QHB7rr-22">
          <mxGeometry relative="1" as="geometry">
            <mxPoint x="770" y="522" as="sourcePoint" />
            <mxPoint x="799" y="490" as="targetPoint" />
          </mxGeometry>
        </mxCell>
        <mxCell id="OEcMnNJZCauM74QHB7rr-32" value="R1" style="shape=rhombus;perimeter=rhombusPerimeter;whiteSpace=wrap;html=1;align=center;" vertex="1" parent="1">
          <mxGeometry x="440" y="380" width="90" height="50" as="geometry" />
        </mxCell>
        <mxCell id="OEcMnNJZCauM74QHB7rr-33" value="R5" style="shape=rhombus;perimeter=rhombusPerimeter;whiteSpace=wrap;html=1;align=center;" vertex="1" parent="1">
          <mxGeometry x="870" y="585" width="90" height="50" as="geometry" />
        </mxCell>
        <mxCell id="OEcMnNJZCauM74QHB7rr-34" value="R2" style="shape=rhombus;perimeter=rhombusPerimeter;whiteSpace=wrap;html=1;align=center;" vertex="1" parent="1">
          <mxGeometry x="765" y="290" width="90" height="50" as="geometry" />
        </mxCell>
        <mxCell id="OEcMnNJZCauM74QHB7rr-35" value="R4" style="shape=rhombus;perimeter=rhombusPerimeter;whiteSpace=wrap;html=1;align=center;" vertex="1" parent="1">
          <mxGeometry x="860" y="465" width="90" height="50" as="geometry" />
        </mxCell>
        <mxCell id="OEcMnNJZCauM74QHB7rr-36" value="R3" style="shape=rhombus;perimeter=rhombusPerimeter;whiteSpace=wrap;html=1;align=center;" vertex="1" parent="1">
          <mxGeometry x="625" y="350" width="90" height="50" as="geometry" />
        </mxCell>
        <mxCell id="OEcMnNJZCauM74QHB7rr-39" value="R6" style="shape=rhombus;perimeter=rhombusPerimeter;whiteSpace=wrap;html=1;align=center;" vertex="1" parent="1">
          <mxGeometry x="535" y="530" width="90" height="50" as="geometry" />
        </mxCell>
        <mxCell id="OEcMnNJZCauM74QHB7rr-40" value="" style="endArrow=none;html=1;rounded=0;exitX=1;exitY=1;exitDx=0;exitDy=0;entryX=0.408;entryY=0.006;entryDx=0;entryDy=0;entryPerimeter=0;" edge="1" parent="1" source="Ds3o-OmhyKdtsvsOEu8b-1" target="OEcMnNJZCauM74QHB7rr-32">
          <mxGeometry relative="1" as="geometry">
            <mxPoint x="330" y="340" as="sourcePoint" />
            <mxPoint x="480" y="343" as="targetPoint" />
            <Array as="points">
              <mxPoint x="480" y="280" />
            </Array>
          </mxGeometry>
        </mxCell>
        <mxCell id="OEcMnNJZCauM74QHB7rr-42" value="1" style="edgeLabel;html=1;align=center;verticalAlign=middle;resizable=0;points=[];" vertex="1" connectable="0" parent="OEcMnNJZCauM74QHB7rr-40">
          <mxGeometry x="-0.2971" y="1" relative="1" as="geometry">
            <mxPoint as="offset" />
          </mxGeometry>
        </mxCell>
        <mxCell id="OEcMnNJZCauM74QHB7rr-47" value="" style="shape=link;html=1;rounded=0;entryX=0.46;entryY=0;entryDx=0;entryDy=0;entryPerimeter=0;exitX=0;exitY=1;exitDx=0;exitDy=0;" edge="1" parent="1" source="OEcMnNJZCauM74QHB7rr-32" target="OEcMnNJZCauM74QHB7rr-1">
          <mxGeometry relative="1" as="geometry">
            <mxPoint x="650" y="500" as="sourcePoint" />
            <mxPoint x="810" y="500" as="targetPoint" />
            <Array as="points">
              <mxPoint x="344" y="420" />
            </Array>
          </mxGeometry>
        </mxCell>
        <mxCell id="OEcMnNJZCauM74QHB7rr-48" value="N" style="resizable=0;html=1;whiteSpace=wrap;align=right;verticalAlign=bottom;" connectable="0" vertex="1" parent="OEcMnNJZCauM74QHB7rr-47">
          <mxGeometry x="1" relative="1" as="geometry" />
        </mxCell>
        <mxCell id="OEcMnNJZCauM74QHB7rr-49" value="" style="shape=link;html=1;rounded=0;entryX=0.9;entryY=1;entryDx=0;entryDy=0;entryPerimeter=0;exitX=0.138;exitY=0.406;exitDx=0;exitDy=0;exitPerimeter=0;" edge="1" parent="1" source="OEcMnNJZCauM74QHB7rr-34" target="Ds3o-OmhyKdtsvsOEu8b-2">
          <mxGeometry relative="1" as="geometry">
            <mxPoint x="841.5" y="298" as="sourcePoint" />
            <mxPoint x="718.5" y="390" as="targetPoint" />
            <Array as="points">
              <mxPoint x="700" y="310" />
            </Array>
          </mxGeometry>
        </mxCell>
        <mxCell id="OEcMnNJZCauM74QHB7rr-50" value="N" style="resizable=0;html=1;whiteSpace=wrap;align=right;verticalAlign=bottom;" connectable="0" vertex="1" parent="OEcMnNJZCauM74QHB7rr-49">
          <mxGeometry x="1" relative="1" as="geometry">
            <mxPoint x="26" y="21" as="offset" />
          </mxGeometry>
        </mxCell>
        <mxCell id="OEcMnNJZCauM74QHB7rr-51" value="" style="endArrow=none;html=1;rounded=0;entryX=0;entryY=0.75;entryDx=0;entryDy=0;exitX=0.892;exitY=0.434;exitDx=0;exitDy=0;exitPerimeter=0;" edge="1" parent="1" source="OEcMnNJZCauM74QHB7rr-34" target="Ds3o-OmhyKdtsvsOEu8b-3">
          <mxGeometry relative="1" as="geometry">
            <mxPoint x="833" y="303" as="sourcePoint" />
            <mxPoint x="810" y="500" as="targetPoint" />
            <Array as="points">
              <mxPoint x="850" y="250" />
            </Array>
          </mxGeometry>
        </mxCell>
        <mxCell id="OEcMnNJZCauM74QHB7rr-52" value="1" style="resizable=0;html=1;whiteSpace=wrap;align=right;verticalAlign=bottom;" connectable="0" vertex="1" parent="OEcMnNJZCauM74QHB7rr-51">
          <mxGeometry x="1" relative="1" as="geometry" />
        </mxCell>
        <mxCell id="OEcMnNJZCauM74QHB7rr-55" value="" style="endArrow=none;html=1;rounded=0;entryX=0;entryY=0.5;entryDx=0;entryDy=0;exitX=1;exitY=0;exitDx=0;exitDy=0;" edge="1" parent="1" source="OEcMnNJZCauM74QHB7rr-35" target="Ds3o-OmhyKdtsvsOEu8b-28">
          <mxGeometry relative="1" as="geometry">
            <mxPoint x="650" y="500" as="sourcePoint" />
            <mxPoint x="810" y="500" as="targetPoint" />
          </mxGeometry>
        </mxCell>
        <mxCell id="OEcMnNJZCauM74QHB7rr-56" value="1" style="resizable=0;html=1;whiteSpace=wrap;align=right;verticalAlign=bottom;" connectable="0" vertex="1" parent="OEcMnNJZCauM74QHB7rr-55">
          <mxGeometry x="1" relative="1" as="geometry" />
        </mxCell>
        <mxCell id="OEcMnNJZCauM74QHB7rr-57" value="" style="endArrow=none;html=1;rounded=0;entryX=0;entryY=0.5;entryDx=0;entryDy=0;exitX=0.9;exitY=0.434;exitDx=0;exitDy=0;exitPerimeter=0;" edge="1" parent="1" source="OEcMnNJZCauM74QHB7rr-33" target="Ds3o-OmhyKdtsvsOEu8b-37">
          <mxGeometry relative="1" as="geometry">
            <mxPoint x="928" y="634" as="sourcePoint" />
            <mxPoint x="1040" y="626" as="targetPoint" />
          </mxGeometry>
        </mxCell>
        <mxCell id="OEcMnNJZCauM74QHB7rr-58" value="1" style="resizable=0;html=1;whiteSpace=wrap;align=right;verticalAlign=bottom;" connectable="0" vertex="1" parent="OEcMnNJZCauM74QHB7rr-57">
          <mxGeometry x="1" relative="1" as="geometry" />
        </mxCell>
        <mxCell id="OEcMnNJZCauM74QHB7rr-59" value="" style="shape=link;html=1;rounded=0;entryX=1;entryY=0.75;entryDx=0;entryDy=0;exitX=0.122;exitY=0.534;exitDx=0;exitDy=0;exitPerimeter=0;" edge="1" parent="1" source="OEcMnNJZCauM74QHB7rr-35" target="OEcMnNJZCauM74QHB7rr-21">
          <mxGeometry relative="1" as="geometry">
            <mxPoint x="650" y="500" as="sourcePoint" />
            <mxPoint x="810" y="500" as="targetPoint" />
          </mxGeometry>
        </mxCell>
        <mxCell id="OEcMnNJZCauM74QHB7rr-60" value="N" style="resizable=0;html=1;whiteSpace=wrap;align=right;verticalAlign=bottom;" connectable="0" vertex="1" parent="OEcMnNJZCauM74QHB7rr-59">
          <mxGeometry x="1" relative="1" as="geometry">
            <mxPoint x="19" as="offset" />
          </mxGeometry>
        </mxCell>
        <mxCell id="OEcMnNJZCauM74QHB7rr-61" value="" style="shape=link;html=1;rounded=0;entryX=1;entryY=1;entryDx=0;entryDy=0;" edge="1" parent="1" target="OEcMnNJZCauM74QHB7rr-21">
          <mxGeometry relative="1" as="geometry">
            <mxPoint x="890" y="600" as="sourcePoint" />
            <mxPoint x="820" y="498" as="targetPoint" />
            <Array as="points">
              <mxPoint x="870" y="530" />
            </Array>
          </mxGeometry>
        </mxCell>
        <mxCell id="OEcMnNJZCauM74QHB7rr-62" value="N" style="resizable=0;html=1;whiteSpace=wrap;align=right;verticalAlign=bottom;" connectable="0" vertex="1" parent="OEcMnNJZCauM74QHB7rr-61">
          <mxGeometry x="1" relative="1" as="geometry">
            <mxPoint x="44" y="5" as="offset" />
          </mxGeometry>
        </mxCell>
        <mxCell id="OEcMnNJZCauM74QHB7rr-65" value="" style="endArrow=none;html=1;rounded=0;entryX=1;entryY=0.75;entryDx=0;entryDy=0;exitX=0;exitY=0;exitDx=0;exitDy=0;" edge="1" parent="1" source="OEcMnNJZCauM74QHB7rr-39" target="OEcMnNJZCauM74QHB7rr-1">
          <mxGeometry relative="1" as="geometry">
            <mxPoint x="550" y="560" as="sourcePoint" />
            <mxPoint x="710" y="560" as="targetPoint" />
          </mxGeometry>
        </mxCell>
        <mxCell id="OEcMnNJZCauM74QHB7rr-66" value="1" style="resizable=0;html=1;whiteSpace=wrap;align=right;verticalAlign=bottom;" connectable="0" vertex="1" parent="OEcMnNJZCauM74QHB7rr-65">
          <mxGeometry x="1" relative="1" as="geometry">
            <mxPoint x="15" as="offset" />
          </mxGeometry>
        </mxCell>
        <mxCell id="OEcMnNJZCauM74QHB7rr-67" value="" style="endArrow=none;html=1;rounded=0;entryX=0;entryY=0.5;entryDx=0;entryDy=0;exitX=0;exitY=0;exitDx=0;exitDy=0;" edge="1" parent="1" source="OEcMnNJZCauM74QHB7rr-39" target="Ds3o-OmhyKdtsvsOEu8b-2">
          <mxGeometry relative="1" as="geometry">
            <mxPoint x="644" y="543" as="sourcePoint" />
            <mxPoint x="480" y="540" as="targetPoint" />
            <Array as="points">
              <mxPoint x="530" y="240" />
            </Array>
          </mxGeometry>
        </mxCell>
        <mxCell id="OEcMnNJZCauM74QHB7rr-68" value="1" style="resizable=0;html=1;whiteSpace=wrap;align=right;verticalAlign=bottom;" connectable="0" vertex="1" parent="OEcMnNJZCauM74QHB7rr-67">
          <mxGeometry x="1" relative="1" as="geometry">
            <mxPoint x="-11" as="offset" />
          </mxGeometry>
        </mxCell>
        <mxCell id="OEcMnNJZCauM74QHB7rr-69" value="" style="shape=link;html=1;rounded=0;entryX=0.599;entryY=-0.029;entryDx=0;entryDy=0;exitX=0.944;exitY=0.6;exitDx=0;exitDy=0;exitPerimeter=0;entryPerimeter=0;" edge="1" parent="1" source="OEcMnNJZCauM74QHB7rr-39" target="OEcMnNJZCauM74QHB7rr-12">
          <mxGeometry relative="1" as="geometry">
            <mxPoint x="771" y="592" as="sourcePoint" />
            <mxPoint x="646" y="600" as="targetPoint" />
            <Array as="points">
              <mxPoint x="670" y="560" />
            </Array>
          </mxGeometry>
        </mxCell>
        <mxCell id="OEcMnNJZCauM74QHB7rr-70" value="N" style="resizable=0;html=1;whiteSpace=wrap;align=right;verticalAlign=bottom;" connectable="0" vertex="1" parent="OEcMnNJZCauM74QHB7rr-69">
          <mxGeometry x="1" relative="1" as="geometry">
            <mxPoint x="19" as="offset" />
          </mxGeometry>
        </mxCell>
        <mxCell id="OEcMnNJZCauM74QHB7rr-73" value="" style="shape=link;html=1;rounded=0;entryX=0.25;entryY=0;entryDx=0;entryDy=0;exitX=0.5;exitY=1;exitDx=0;exitDy=0;" edge="1" parent="1" source="OEcMnNJZCauM74QHB7rr-36" target="OEcMnNJZCauM74QHB7rr-21">
          <mxGeometry relative="1" as="geometry">
            <mxPoint x="670" y="390" as="sourcePoint" />
            <mxPoint x="810" y="500" as="targetPoint" />
          </mxGeometry>
        </mxCell>
        <mxCell id="OEcMnNJZCauM74QHB7rr-74" value="N" style="resizable=0;html=1;whiteSpace=wrap;align=right;verticalAlign=bottom;direction=south;" connectable="0" vertex="1" parent="OEcMnNJZCauM74QHB7rr-73">
          <mxGeometry x="1" relative="1" as="geometry">
            <mxPoint x="14" y="-5" as="offset" />
          </mxGeometry>
        </mxCell>
        <mxCell id="OEcMnNJZCauM74QHB7rr-75" value="" style="endArrow=none;html=1;rounded=0;entryX=0.75;entryY=1;entryDx=0;entryDy=0;exitX=0.5;exitY=0;exitDx=0;exitDy=0;" edge="1" parent="1" source="OEcMnNJZCauM74QHB7rr-36" target="Ds3o-OmhyKdtsvsOEu8b-2">
          <mxGeometry relative="1" as="geometry">
            <mxPoint x="680" y="350" as="sourcePoint" />
            <mxPoint x="792" y="342" as="targetPoint" />
          </mxGeometry>
        </mxCell>
        <mxCell id="OEcMnNJZCauM74QHB7rr-76" value="1" style="resizable=0;html=1;whiteSpace=wrap;align=right;verticalAlign=bottom;" connectable="0" vertex="1" parent="OEcMnNJZCauM74QHB7rr-75">
          <mxGeometry x="1" relative="1" as="geometry">
            <mxPoint x="1" y="20" as="offset" />
          </mxGeometry>
        </mxCell>
        <mxCell id="OEcMnNJZCauM74QHB7rr-77" value="" style="endArrow=none;html=1;rounded=0;entryX=0;entryY=1;entryDx=0;entryDy=0;exitX=1;exitY=0;exitDx=0;exitDy=0;" edge="1" parent="1" source="OEcMnNJZCauM74QHB7rr-39" target="OEcMnNJZCauM74QHB7rr-21">
          <mxGeometry relative="1" as="geometry">
            <mxPoint x="600" y="530" as="sourcePoint" />
            <mxPoint x="760" y="530" as="targetPoint" />
          </mxGeometry>
        </mxCell>
        <mxCell id="OEcMnNJZCauM74QHB7rr-78" value="1" style="resizable=0;html=1;whiteSpace=wrap;align=right;verticalAlign=bottom;" connectable="0" vertex="1" parent="OEcMnNJZCauM74QHB7rr-77">
          <mxGeometry x="1" relative="1" as="geometry" />
        </mxCell>
      </root>
    </mxGraphModel>
  </diagram>
</mxfile>
